<svg xmlns="http://www.w3.org/2000/svg" data-name="Layer 1" width="800.0000166893005" height="492.0000087618828" style=""><rect id="backgroundrect" width="100%" height="100%" x="0" y="0" fill="none" stroke="none" style="" class=""/>
 <defs>
  <style>.cls-1{fill:#040404;}.cls-2{fill:#fff;}.cls-3{fill:#4d4d4d;}.cls-4{fill:#86328c;}.cls-5{fill:#f7f7f7;}.cls-6{fill:#ec008c;}.cls-7{fill:#0083ca;}.cls-8{fill:#999;}.cls-9{fill:#ed1164;}.cls-10{fill:#afafaf;}.cls-11{fill:#919296;}.cls-12{fill:url(#e);}.cls-13{fill:#464142;}.cls-14{fill:url(#d);}.cls-15{fill:#1d1e21;}.cls-16{fill:#0d0f12;}.cls-17{fill:#1c1e20;}.cls-18{fill:#dcdde0;}.cls-19{fill:#cecece;}.cls-20{stroke:#0c0c0c;fill:url(#c);}.cls-20,.cls-22,.cls-26{stroke-miterlimit:10;}.cls-21{opacity:0.63;}.cls-22{fill:none;stroke:#424242;}.cls-22,.cls-28{opacity:0.55;}.cls-23{fill:#191918;}.cls-24{fill:#423f43;}.cls-25{fill:#666;}.cls-26{fill:url(#b);stroke:url(#a);}.cls-27{opacity:0.93;}</style>
  <linearGradient id="e" x1="635.280029296875" x2="1420.199951171875" y1="750.6699829101562" y2="750.6699829101562" gradientUnits="userSpaceOnUse">
   <stop stop-color="#606162" offset="0"/>
   <stop stop-color="#b7babb" offset=".12"/>
   <stop stop-color="#a2a5a6" offset=".36"/>
   <stop stop-color="#c9cccd" offset=".51"/>
   <stop stop-color="#848687" offset=".73"/>
   <stop stop-color="#9c9fa0" offset=".88"/>
   <stop stop-color="#4c4d4e" offset="1"/>
  </linearGradient>
  <linearGradient id="d" x1="1023.7999877929688" x2="1023.7999877929688" y1="738.510009765625" y2="749.8699951171875" gradientUnits="userSpaceOnUse">
   <stop stop-color="#9c9fa0" offset="0"/>
   <stop stop-color="#a2a5a6" offset=".24"/>
   <stop stop-color="#4c4d4e" offset="1"/>
  </linearGradient>
  <linearGradient id="c" x1="1564.0999755859375" x2="1572.800048828125" y1="765.0999755859375" y2="750.0599975585938" gradientUnits="userSpaceOnUse">
   <stop stop-color="#0a0a0a" offset="0"/>
   <stop stop-color="#1b1b1b" offset=".57"/>
   <stop stop-color="#090909" offset="1"/>
  </linearGradient>
  <radialGradient id="b" cx="390.2900085449219" cy="758.760009765625" r="10.649999618530273" gradientTransform="translate(465.38 163.82) rotate(47.8) scale(1 .6)" gradientUnits="userSpaceOnUse">
   <stop stop-color="#2a2a2a" offset="0"/>
   <stop stop-color="#090909" offset="1"/>
  </radialGradient>
  <radialGradient id="a" cx="390.2900085449219" cy="758.760009765625" r="11.149999618530273" gradientTransform="translate(690.21 -40.05) rotate(47.8)" gradientUnits="userSpaceOnUse">
   <stop stop-color="#464646" offset=".13"/>
   <stop stop-color="#2b2b2b" offset=".37"/>
   <stop stop-color="#090909" offset="1"/>
  </radialGradient>
 </defs>
 
 
 
 
 
 
 
 
 
 
 
 
 
 
 
 
 
 
 
 
 
 
 
 
 
 
 
 
 
 
 
 
 
 
 
 
 
 
 
 
 
 
 
 
 
 
 
 
 
 
 
 
 
 
 
 
 
 
 
 
 
 
 
 
 
 
 
 
 
 
 
 
 
 
 
 
 
 
 
 
 
 
 
 
 
 
 
 
 
 
 
 
 
 
 
 
 
 
 
 
 
 
 
 
 
 
 
 
 
 
 
 
 
 
 
 
 
<g class="currentLayer" style=""><title>Layer 1</title><path class="cls-1" d="m118.75,20.730000000000018 h562.25 a35.18,35.18 0 0 1 35.18,35.18 v380.83 h-632.61 v-380.83 a35.18,35.18 0 0 1 35.18,-35.18 z" id="svg_1"/><rect class="cls-2" x="115.67999267578125" y="59.019989013671875" width="570.8699951171875" height="342.5" rx="2.2100000381469727" ry="2.2100000381469727" id="svg_2"/><ellipse class="cls-3" cx="400.800048828125" cy="41.95001220703125" rx="3.619999885559082" ry="2.1500000953674316" id="svg_3"/><rect class="cls-4" x="114.8699951171875" y="75.760009765625" width="570.8699951171875" height="23.15999984741211" id="svg_5"/><rect class="cls-4" x="164.55999755859375" y="109.42999267578125" width="464.57000732421875" height="120.11000061035156" id="svg_6"/><rect class="cls-5" x="249.45001220703125" y="160.95999145507812" width="294.7900085449219" height="24.479999542236328" id="svg_7"/><rect class="cls-6" x="481.4000244140625" y="160.95999145507812" width="62.790000915527344" height="24.770000457763672" id="svg_8"/><rect class="cls-7" x="324.760009765625" y="242.91998291015625" width="143.2899932861328" height="63.189998626708984" id="svg_9"/><rect class="cls-7" x="485.800048828125" y="241.46002197265625" width="143.2899932861328" height="63.189998626708984" id="svg_10"/><rect class="cls-7" x="164.55999755859375" y="242.91998291015625" width="143.2899932861328" height="63.189998626708984" id="svg_11"/><rect class="cls-8" x="325.20001220703125" y="316.30999755859375" width="143.2899932861328" height="4.210000038146973" id="svg_12"/><rect class="cls-8" x="325.20001220703125" y="328.3900146484375" width="143.2899932861328" height="4.210000038146973" id="svg_13"/><rect class="cls-8" x="325.20001220703125" y="340.469970703125" width="143.2899932861328" height="4.210000038146973" id="svg_14"/><rect class="cls-8" x="325.20001220703125" y="352.55999755859375" width="143.2899932861328" height="4.210000038146973" id="svg_15"/><rect class="cls-9" x="164.55999755859375" y="366.6500244140625" width="464.57000732421875" height="34.709999084472656" id="svg_16"/><rect class="cls-8" x="164.55999755859375" y="315.84002685546875" width="143.2899932861328" height="4.210000038146973" id="svg_17"/><rect class="cls-8" x="164.55999755859375" y="327.91998291015625" width="143.2899932861328" height="4.210000038146973" id="svg_18"/><rect class="cls-8" x="164.55999755859375" y="340" width="143.2899932861328" height="4.210000038146973" id="svg_19"/><rect class="cls-8" x="164.55999755859375" y="352.08001708984375" width="143.2899932861328" height="4.210000038146973" id="svg_20"/><rect class="cls-8" x="485.800048828125" y="316.30999755859375" width="143.2899932861328" height="4.210000038146973" id="svg_21"/><rect class="cls-8" x="485.800048828125" y="328.3900146484375" width="143.2899932861328" height="4.210000038146973" id="svg_22"/><rect class="cls-8" x="485.800048828125" y="340.469970703125" width="143.2899932861328" height="4.210000038146973" id="svg_23"/><rect class="cls-8" x="485.800048828125" y="352.55999755859375" width="143.2899932861328" height="4.210000038146973" id="svg_24"/><rect class="cls-8" x="487.9000244140625" y="85.1400146484375" width="69.3499984741211" height="5.75" id="svg_25"/><rect class="cls-10" x="400.800048828125" y="85.1400146484375" width="69.3499984741211" height="5.75" id="svg_26"/><rect class="cls-8" x="230.469970703125" y="85.1400146484375" width="69.3499984741211" height="5.75" id="svg_27"/><rect class="cls-8" x="313.780029296875" y="85.1400146484375" width="69.3499984741211" height="5.75" id="svg_28"/><path class="cls-11" d="m784.8,457.17999999999995 c0,6.37 -25.13,15.61 -29.82,15.61 h-711.36 c-4.69,0 -29.82,-9.25 -29.82,-15.61 z" id="svg_29"/><path class="cls-12" d="m5.279999999999973,436.61 h784.87 v5.24 a22.88,22.88 0 0 1 -22.88,22.88 h-739.67 a22.32,22.32 0 0 1 -22.32,-22.32 v-5.8 z" id="svg_30"/><path class="cls-13" d="M766,469 c0,2.75 -23.93,6.74 -28.39,6.74 H60.27999999999997 c-4.46,0 -28.39,-4 -28.39,-6.74 z" id="svg_31"/><path class="cls-14" d="m448.4000000000001,438.51 a11.57,11.57 0 0 1 -11.25,11.36 h-87.7 c-6.34,0 -10.24,-5.68 -10.24,-11.35 z" id="svg_32"/><path class="cls-15" d="m285.45000000000005,473.69000000000005 c2.13,-1.6500000000000008 8.12,-1.61 9.65,0.06000000000000014 a17.18,17.18 0 0 1 -9.65,-0.06000000000000014 z" id="svg_33"/><path class="cls-15" d="m498.20000000000005,474.13 c2.13,-1.6500000000000008 8.12,-1.61 9.65,0.06000000000000014 a17.18,17.18 0 0 1 -9.65,-0.06000000000000014 z" id="svg_34"/><path class="cls-15" d="M60,473.37 c2.13,-1.6500000000000008 8.12,-1.61 9.65,0.06000000000000014 A17.18,17.18 0 0 1 60,473.37 z" id="svg_35"/><path class="cls-15" d="m720.3,473.91999999999996 c2.13,-1.6500000000000008 8.12,-1.61 9.65,0.06000000000000014 a17.18,17.18 0 0 1 -9.65,-0.06000000000000014 z" id="svg_36"/><path class="cls-16" d="m713,452.5 a5.94,5.94 0 0 1 -1.58,0.4700000000000003 h-23 a2.07,2.07 0 0 1 -1.57,-0.51 c8.71,-0.21000000000000021 17.44,-0.27 26.15,0.040000000000000105 z" id="svg_37"/><path class="cls-17" d="M686.4000000000001,454.19000000000005 c-1,-1.23 -1.8900000000000001,-2.44 0.4200000000000003,-3.24 c5.82,0.52 11.65,0.15000000000000024 17.47,0.21000000000000021 A53.36,53.36 0 0 0 713,451 c2.3,1.13 1.26,2.22 0,3.3 c-1.55,0.660000000000002 -3.18,0.2900000000000003 -4.76,0.3000000000000003 c-6.36,0.05000000000000013 -12.73,0 -19.1,0 C688.21,454.58000000000004 687.21,455 686.4000000000001,454.19000000000005 z" id="svg_38"/><path class="cls-18" d="M686.4000000000001,454.19000000000005 l26.58,0.0800000000000002 a3.73,3.73 0 0 1 -0.05000000000000013,0.4700000000000003 q-13.18,0.07 -26.36,0.09000000000000029 c-0.07,0 -0.2,-0.09000000000000029 -0.2,-0.14 A3.22,3.22 0 0 1 686.4000000000001,454.19000000000005 z" id="svg_39"/><path class="cls-16" d="m713,451 a5.94,5.94 0 0 1 -1.58,0.4700000000000003 h-23 a2.07,2.07 0 0 1 -1.57,-0.51 c8.71,-0.23 17.44,-0.2900000000000003 26.15,0.040000000000000105 z" id="svg_40"/><path class="cls-16" d="m713,451 a5.94,5.94 0 0 1 -1.58,0.4700000000000003 h-23 a2.07,2.07 0 0 1 -1.57,-0.51 c8.71,-0.23 17.44,-0.2900000000000003 26.15,0.040000000000000105 z" id="svg_41"/><path class="cls-17" d="M686.4000000000001,454.19000000000005 c-1,-1.23 -1.8900000000000001,-2.44 0.4200000000000003,-3.24 c5.82,0.52 11.65,0.15000000000000024 17.47,0.21000000000000021 A53.36,53.36 0 0 0 713,451 c2.3,1.13 1.26,2.22 0,3.3 c-1.55,0.660000000000002 -3.18,0.2900000000000003 -4.76,0.3000000000000003 c-6.36,0.05000000000000013 -12.73,0 -19.1,0 C688.21,454.58000000000004 687.21,455 686.4000000000001,454.19000000000005 z" id="svg_42"/><path class="cls-19" d="M686.4000000000001,454.19000000000005 l26.58,0.0800000000000002 a3.73,3.73 0 0 1 -0.05000000000000013,0.4700000000000003 q-13.18,0.07 -26.36,0.09000000000000029 c-0.07,0 -0.2,-0.09000000000000029 -0.2,-0.14 A3.22,3.22 0 0 1 686.4000000000001,454.19000000000005 z" id="svg_43"/><path class="cls-16" d="m713,451 a5.94,5.94 0 0 1 -1.58,0.4700000000000003 h-23 a2.07,2.07 0 0 1 -1.57,-0.51 c8.71,-0.23 17.44,-0.2900000000000003 26.15,0.040000000000000105 z" id="svg_44"/></g></svg>