<svg xmlns="http://www.w3.org/2000/svg" data-name="Layer 1" width="1920" height="1080" style=""><rect id="backgroundrect" width="100%" height="100%" x="0" y="0" fill="none" stroke="none"/>
 <defs>
  <style>.cls-1{fill:#040404;}.cls-2{fill:#fff;}.cls-3{fill:#4d4d4d;}.cls-4{fill:#86328c;}.cls-5{fill:#f7f7f7;}.cls-6{fill:#ec008c;}.cls-7{fill:#0083ca;}.cls-8{fill:#999;}.cls-9{fill:#ed1164;}.cls-10{fill:#afafaf;}.cls-11{fill:#919296;}.cls-12{fill:url(#e);}.cls-13{fill:#464142;}.cls-14{fill:url(#d);}.cls-15{fill:#1d1e21;}.cls-16{fill:#0d0f12;}.cls-17{fill:#1c1e20;}.cls-18{fill:#dcdde0;}.cls-19{fill:#cecece;}.cls-20{stroke:#0c0c0c;fill:url(#c);}.cls-20,.cls-22,.cls-26{stroke-miterlimit:10;}.cls-21{opacity:0.63;}.cls-22{fill:none;stroke:#424242;}.cls-22,.cls-28{opacity:0.55;}.cls-23{fill:#191918;}.cls-24{fill:#423f43;}.cls-25{fill:#666;}.cls-26{fill:url(#b);stroke:url(#a);}.cls-27{opacity:0.93;}</style>
  <linearGradient id="e" x1="635.280029296875" x2="1420.199951171875" y1="750.6699829101562" y2="750.6699829101562" gradientUnits="userSpaceOnUse">
   <stop stop-color="#606162" offset="0"/>
   <stop stop-color="#b7babb" offset=".12"/>
   <stop stop-color="#a2a5a6" offset=".36"/>
   <stop stop-color="#c9cccd" offset=".51"/>
   <stop stop-color="#848687" offset=".73"/>
   <stop stop-color="#9c9fa0" offset=".88"/>
   <stop stop-color="#4c4d4e" offset="1"/>
  </linearGradient>
  <linearGradient id="d" x1="1023.7999877929688" x2="1023.7999877929688" y1="738.510009765625" y2="749.8699951171875" gradientUnits="userSpaceOnUse">
   <stop stop-color="#9c9fa0" offset="0"/>
   <stop stop-color="#a2a5a6" offset=".24"/>
   <stop stop-color="#4c4d4e" offset="1"/>
  </linearGradient>
  <linearGradient id="c" x1="1564.0999755859375" x2="1572.800048828125" y1="765.0999755859375" y2="750.0599975585938" gradientUnits="userSpaceOnUse">
   <stop stop-color="#0a0a0a" offset="0"/>
   <stop stop-color="#1b1b1b" offset=".57"/>
   <stop stop-color="#090909" offset="1"/>
  </linearGradient>
  <radialGradient id="b" cx="390.2900085449219" cy="758.760009765625" r="10.649999618530273" gradientTransform="translate(465.38 163.82) rotate(47.8) scale(1 .6)" gradientUnits="userSpaceOnUse">
   <stop stop-color="#2a2a2a" offset="0"/>
   <stop stop-color="#090909" offset="1"/>
  </radialGradient>
  <radialGradient id="a" cx="390.2900085449219" cy="758.760009765625" r="11.149999618530273" gradientTransform="translate(690.21 -40.05) rotate(47.8)" gradientUnits="userSpaceOnUse">
   <stop stop-color="#464646" offset=".13"/>
   <stop stop-color="#2b2b2b" offset=".37"/>
   <stop stop-color="#090909" offset="1"/>
  </radialGradient>
 </defs>
 
 
 
 
 
 
 
 
 
 
 
 
 
 
 
 
 
 
 
 
 
 
 
 
 
 
 
 
 
 
 
 
 
 
 
 
 
 
 
 
 
 
 
 
 
 
 
 
 
 
 
 
 
 
 
 
 
 
 
 
 
 
 
 
 
 
 
 
 
 
 
 
 
 
 
 
 
 
 
 
 
 
 
 
 
 
 
 
 
 
 
 
 
 
 
 
 
 
 
 
 
 
 
 
 
 
 
 
 
 
 
 
 
 
 
 
 
<g class="currentLayer" style=""><title>Layer 1</title><rect class="cls-1 selected" x="928.322509765625" y="352.1450500488281" width="139.00999450683594" height="261.760009765625" rx="20.530000686645508" ry="20.530000686645508" id="svg_45"/><ellipse class="cls-20 selected" cx="998.822509765625" cy="595.9251098632812" rx="8.109999656677246" ry="8.859999656677246" id="svg_46"/><path class="cls-22 selected" d="m997.2225311279296,593.7550708389282 h2.75 a1,1 0 0 1 1,1 v2.31 a1.6800000000000006,1.6800000000000006 0 0 1 -1.6800000000000006,1.6800000000000006 h-2.09 a1,1 0 0 1 -1,-1 v-3 a1,1 0 0 1 1.02,-0.99 z" id="svg_49"/><ellipse class="cls-3 selected" cx="983.2225341796875" cy="371.47509765625" rx="0.8600000143051147" ry="1.2999999523162842" id="svg_50"/><rect class="cls-23 selected" x="990.2225341796875" y="370.5750732421875" width="18.25" height="2.359999895095825" rx="1.1799999475479126" ry="1.1799999475479126" id="svg_52"/><rect class="cls-24 selected" x="991.822509765625" y="370.8651123046875" width="15.430000305175781" height="1.7699999809265137" rx="0.8899999856948853" ry="0.8899999856948853" id="svg_53"/><rect class="cls-2 selected" x="941.5224609375" y="386.64508056640625" width="113.98999786376953" height="186.6999969482422" rx="2.2100000381469727" ry="2.2100000381469727" id="svg_55"/><rect class="cls-4 selected" x="941.5224609375" y="400.2451171875" width="113.98999786376953" height="11.680000305175781" id="svg_56"/><rect class="cls-4 selected" x="941.6224365234375" y="418.5850830078125" width="113.98999786376953" height="55.880001068115234" id="svg_57"/><rect class="cls-5 selected" x="953.5224609375" y="439.4951171875" width="82.5199966430664" height="12.0600004196167" id="svg_58"/><rect class="cls-7 selected" x="984.0224609375" y="479.40509033203125" width="28.610000610351562" height="22.31999969482422" id="svg_59"/><rect class="cls-7 selected" x="1020.322509765625" y="479.51507568359375" width="28.610000610351562" height="22.31999969482422" id="svg_60"/><rect class="cls-7 selected" x="948.0224609375" y="479.51507568359375" width="28.610000610351562" height="22.31999969482422" id="svg_61"/><rect class="cls-8 selected" x="984.0224609375" y="506.1051025390625" width="28.610000610351562" height="2.049999952316284" id="svg_62"/><rect class="cls-8 selected" x="984.0224609375" y="510.64508056640625" width="28.610000610351562" height="2.049999952316284" id="svg_63"/><rect class="cls-8 selected" x="984.0224609375" y="515.1851196289062" width="28.610000610351562" height="2.049999952316284" id="svg_64"/><rect class="cls-8 selected" x="984.0224609375" y="519.72509765625" width="28.610000610351562" height="2.049999952316284" id="svg_65"/><rect class="cls-8 selected" x="984.0224609375" y="524.2650756835938" width="28.610000610351562" height="2.049999952316284" id="svg_66"/><rect class="cls-8 selected" x="1020.322509765625" y="506.04510498046875" width="28.610000610351562" height="2.049999952316284" id="svg_67"/><rect class="cls-8 selected" x="1020.322509765625" y="510.5850830078125" width="28.610000610351562" height="2.049999952316284" id="svg_68"/><rect class="cls-8 selected" x="1020.322509765625" y="515.1251220703125" width="28.610000610351562" height="2.049999952316284" id="svg_69"/><rect class="cls-8 selected" x="1020.322509765625" y="519.6651000976562" width="28.610000610351562" height="2.049999952316284" id="svg_70"/><rect class="cls-8 selected" x="1020.322509765625" y="524.215087890625" width="28.610000610351562" height="2.049999952316284" id="svg_71"/><rect class="cls-8 selected" x="948.0224609375" y="506.04510498046875" width="28.610000610351562" height="2.049999952316284" id="svg_72"/><rect class="cls-8 selected" x="948.0224609375" y="510.5850830078125" width="28.610000610351562" height="2.049999952316284" id="svg_73"/><rect class="cls-8 selected" x="948.0224609375" y="515.1251220703125" width="28.610000610351562" height="2.049999952316284" id="svg_74"/><rect class="cls-8 selected" x="948.0224609375" y="519.6651000976562" width="28.610000610351562" height="2.049999952316284" id="svg_75"/><rect class="cls-8 selected" x="948.0224609375" y="524.215087890625" width="28.610000610351562" height="2.049999952316284" id="svg_76"/><rect class="cls-9 selected" x="948.1224365234375" y="530.7850952148438" width="100.93000030517578" height="28.290000915527344" id="svg_77"/><rect class="cls-8 selected" x="948.1224365234375" y="562.9251098632812" width="100.93000030517578" height="2.0399999618530273" id="svg_78"/><rect class="cls-8 selected" x="948.1224365234375" y="567.47509765625" width="100.93000030517578" height="2.0899999141693115" id="svg_79"/><rect class="cls-25 selected" x="945.2225341796875" y="390.75506591796875" width="5.389999866485596" height="0.75" id="svg_80"/><rect class="cls-25 selected" x="945.2225341796875" y="392.90509033203125" width="5.389999866485596" height="0.75" id="svg_81"/><rect class="cls-25 selected" x="945.2225341796875" y="395.05511474609375" width="5.389999866485596" height="0.75" id="svg_82"/><rect class="cls-6 selected" x="1020.322509765625" y="439.4951171875" width="15.890000343322754" height="12.289999961853027" id="svg_83"/></g></svg>