<?xml version="1.0" encoding="UTF-8"?>
<svg width="500" height="500" version="1.1" viewBox="0 0 500.00001 500.00001" xmlns="http://www.w3.org/2000/svg">
 <g transform="matrix(7.0274 0 0 7.0274 74.315 -6969.7)">
  <circle cx="25" cy="1027.4" r="23.151" fill="none" stroke="#555" stroke-width="2.0801"/>
  <path d="m11.576 1016.7c-0.9595 0-1.7461 0.7886-1.7461 1.7481v15.717c0 0.9595 0.7866 1.7461 1.7461 1.7461h26.848c0.9595 0 1.7461-0.7866 1.7461-1.7461v-15.717c0-0.9595-0.7866-1.7481-1.7461-1.7481h-26.848zm0 1h26.848c0.42281 0 0.74609 0.3252 0.74609 0.7481v15.717c0 0.4229-0.32329 0.7461-0.74609 0.7461h-26.848c-0.42281 0-0.74609-0.3232-0.74609-0.7461v-15.717c0-0.4229 0.32329-0.7481 0.74609-0.7481z" color="#000000" color-rendering="auto" fill="#555" image-rendering="auto" shape-rendering="auto" solid-color="#000000" style="block-progression:tb;isolation:auto;mix-blend-mode:normal;text-decoration-color:#000000;text-decoration-line:none;text-decoration-style:solid;text-indent:0;text-transform:none;white-space:normal"/>
  <path d="m8.2305 1036.2c0 1.0556 0.7289 1.9056 1.634 1.9056h30.271c0.90508 0 1.634-0.85 1.634-1.9056h-33.539z" fill="#555"/>
  <path d="m22.503 1036.6h4.9949c0.07707 0 0.13911 0.062 0.13911 0.1391 0 0.077-0.06204 0.1391-0.13911 0.1391h-4.9949c-0.07707 0-0.13911-0.062-0.13911-0.1391 0-0.077 0.06204-0.1391 0.13911-0.1391z" fill="#fff"/>
 </g>
</svg>
