<?xml version="1.0" encoding="UTF-8"?>
<svg width="650" height="500" version="1.1" viewBox="0 0 650.00001 500.00001" xmlns="http://www.w3.org/2000/svg">
 <defs>
  <filter id="a" x="-.068536" y="-.10456" width="1.1371" height="1.2091" color-interpolation-filters="sRGB">
   <feGaussianBlur stdDeviation="13.463792"/>
  </filter>
 </defs>
 <g transform="translate(0 -552.36)">
  <rect y="552.36" width="650" height="500" fill="#6dd4c7"/>
 </g>
 <rect x="89.262" y="110.62" width="471.48" height="309.03" ry="0" fill-opacity=".090426" filter="url(#a)"/>
 <rect x="89.262" y="95.484" width="471.48" height="309.03" ry="0" fill="#fff"/>
 <rect x="89.262" y="95.484" width="471.48" height="16.293" fill="#ededed"/>
 <circle cx="97.408" cy="103.63" r="2.812" fill="#62d5e9"/>
 <circle cx="114.28" cy="103.63" r="2.812" fill="#ff8d72"/>
 <circle cx="105.84" cy="103.63" r="2.812" fill="#58f9a2"/>
 <circle cx="463.3" cy="250" r="60.822" fill="#ff8d72" stroke="#ededed" stroke-linecap="round" stroke-linejoin="round" stroke-width="2.6513"/>
 <path d="m445.39 221.08c-2.7375 0-4.9922 2.2527-4.9922 4.9902v0.39844h-4.8633c-2.7373 0-4.9902 2.2549-4.9902 4.9922v42.459c0 1.7109 0.88066 3.2322 2.209 4.1328 0.26566 0.18012 0.54762 0.33589 0.8457 0.46289 0.59658 0.2544 1.2506 0.39453 1.9356 0.39453h55.52c2.0524 0 3.8334-1.2671 4.5957-3.0547 2.4e-4 -5.7e-4 -2.4e-4 -1e-3 0-2e-3 0.25397-0.59615 0.39453-1.2492 0.39453-1.9336v-42.459c0-2.7375-2.253-4.9922-4.9902-4.9922h-25.975v-0.39844c0-2.7373-2.2527-4.9902-4.9902-4.9902h-14.699zm0 3.1777h14.699c1.0315 0 1.8125 0.7808 1.8125 1.8125v1.9883a1.5893 1.5893 0 0 0 1.5879 1.5898h27.564c1.0317 0 1.8125 0.78103 1.8125 1.8125v2.3516c-0.56447-0.22373-1.1724-0.35742-1.8125-0.35742h-55.52c-0.64007 0-1.248 0.13369-1.8125 0.35742v-2.3516c0-1.0317 0.78079-1.8125 1.8125-1.8125h6.4531a1.5893 1.5893 0 0 0 1.5898 -1.5898v-1.9883c0-1.0315 0.781-1.8125 1.8125-1.8125zm-9.8555 12.375h55.52c1.0316 0 1.8125 0.78091 1.8125 1.8125v35.475c0 1.0315-0.78104 1.8125-1.8125 1.8125h-55.52c-0.12829 0-0.25354-0.012-0.37305-0.0352-6.2e-4 -1.2e-4 -1e-3 1.2e-4 -2e-3 0-0.84056-0.16358-1.4375-0.87471-1.4375-1.7774v-35.475c0-1.0316 0.7809-1.8125 1.8125-1.8125z" color="#000000" color-rendering="auto" fill="#fff" image-rendering="auto" shape-rendering="auto" solid-color="#000000" style="block-progression:tb;isolation:auto;mix-blend-mode:normal;text-decoration-color:#000000;text-decoration-line:none;text-decoration-style:solid;text-indent:0;text-transform:none;white-space:normal"/>
 <circle cx="186.7" cy="250" r="60.822" fill="#62d5e9" stroke="#ededed" stroke-linecap="round" stroke-linejoin="round" stroke-width="2.6513"/>
 <g transform="matrix(.38419 0 0 .38419 89.734 245.67)" fill="#fff">
  <path d="m158.06-63.99c-6.7428 0-12.27 5.5418-12.27 12.285v110.45c0 6.7428 5.5277 12.271 12.27 12.271h188.67c6.7428 0 12.27-5.5277 12.27-12.271v-110.45c0-6.7428-5.5277-12.285-12.27-12.285h-188.67zm0 7.0274h188.67c2.9712 0 5.2431 2.2853 5.2431 5.2572v110.45c0 2.9719-2.2719 5.2431-5.2431 5.2431h-188.67c-2.9712 0-5.2431-2.2712-5.2431-5.2431v-110.45c0-2.9719 2.2719-5.2572 5.2431-5.2572z" color="#000000" color-rendering="auto" image-rendering="auto" shape-rendering="auto" solid-color="#000000" style="block-progression:tb;isolation:auto;mix-blend-mode:normal;text-decoration-color:#000000;text-decoration-line:none;text-decoration-style:solid;text-indent:0;text-transform:none;white-space:normal"/>
  <path d="m134.55 73.143c0 7.4181 5.1221 13.391 11.482 13.391h212.73c6.3604 0 11.482-5.9725 11.482-13.391h-235.69zm100.29 2.9492h35.102c0.5416 0 0.97656 0.4367 0.97656 0.97852 0 0.54111-0.43496 0.97656-0.97656 0.97656h-35.102c-0.5416 0-0.97852-0.43475-0.97852-0.97656 0-0.54111 0.43693-0.97852 0.97852-0.97852z"/>
 </g>
 <circle cx="325" cy="250" r="60.822" fill="#f0ef94" stroke="#ededed" stroke-linecap="round" stroke-linejoin="round" stroke-width="2.6513"/>
 <g transform="translate(-64.858 -82.061)" fill="#fff">
  <path d="m356.57 303.15c-1.452 0-2.6207 1.1689-2.6207 2.6211v42.633c0 1.452 1.1687 2.6206 2.6207 2.6206h25.16v8.0498h-2.8543c-0.52783 0-0.95288 0.425-0.95288 0.95304 0 0.52777 0.42507 0.95277 0.95288 0.95277h21.959c0.52783 0 0.95288-0.425 0.95288-0.95277 0-0.52804-0.42507-0.95304-0.95288-0.95304h-2.8543v-8.0498h25.16c1.452 0 2.6207-1.1686 2.6207-2.6206v-42.633c0-1.4522-1.1686-2.6211-2.6207-2.6211zm0.71646 3.2447h65.138v41.112h-65.138z"/>
  <path d="m415.78 315.17-10.736 11.757-14.096-2.6059-10.912 10.741-9.8-4.0246-8.668 10.293 0.98604 0.82502 8.0593-9.5736 9.7195 3.9945 11.043-10.867 14.137 2.6162 11.219-12.285-0.95082-0.87035z" color="#000000" color-rendering="auto" fill-rule="evenodd" image-rendering="auto" shape-rendering="auto" solid-color="#000000" style="block-progression:tb;isolation:auto;mix-blend-mode:normal;text-decoration-color:#000000;text-decoration-line:none;text-decoration-style:solid;text-indent:0;text-transform:none;white-space:normal"/>
  <path d="m362.87 340.77c0.54379 0.45797 0.61348 1.2709 0.15555 1.8146-0.45792 0.54375-1.2709 0.61355-1.8147 0.15455-0.54378-0.45797-0.61347-1.2709-0.15555-1.8146 0.45792-0.54374 1.2709-0.61355 1.8147-0.15454z" fill-rule="evenodd"/>
  <path d="m371.65 331.5c0.16941 0.69056-0.25345 1.3883-0.94389 1.5578-0.69043 0.17-1.3883-0.25242-1.5577-0.94401-0.16941-0.69031 0.25345-1.3881 0.94389-1.5576 0.69043-0.17 1.3883 0.25243 1.5577 0.94376z" fill-rule="evenodd"/>
  <path d="m381.42 335.57c0.13695 0.69752-0.31807 1.3749-1.0157 1.512-0.69759 0.13652-1.3749-0.3181-1.5118-1.0159-0.13695-0.69752 0.31807-1.3747 1.0157-1.5117 0.69759-0.13651 1.3749 0.31811 1.5118 1.0156z" fill-rule="evenodd"/>
  <path d="m392.37 324.64c0.20814 0.67975-0.17462 1.4004-0.85437 1.6086-0.67976 0.20863-1.4004-0.17515-1.6085-0.85438-0.20815-0.67975 0.17461-1.4004 0.85436-1.6086 0.67976-0.20864 1.4004 0.17515 1.6085 0.85438z" fill-rule="evenodd"/>
  <path d="m406.47 327.22c0.22623 0.67382-0.13716 1.4046-0.81111 1.6307-0.67395 0.22666-1.4045-0.13652-1.6308-0.81111-0.22623-0.67408 0.13716-1.4046 0.8111-1.6307 0.67396-0.22667 1.4045 0.13652 1.6308 0.81111z" fill-rule="evenodd"/>
  <path d="m417.1 314.67c0.52499 0.47935 0.56203 1.2946 0.0827 1.8195-0.47935 0.52494-1.2945 0.56203-1.8195 0.0824-0.525-0.47935-0.56204-1.2943-0.0827-1.8195 0.47935-0.52494 1.2945-0.56204 1.8195-0.0824z" fill-rule="evenodd"/>
 </g>
</svg>
