<?xml version="1.0" encoding="UTF-8"?>
<svg width="500" height="500" version="1.1" viewBox="0 0 500.00001 500.00001" xmlns="http://www.w3.org/2000/svg">
 <g transform="matrix(7.0274 0 0 7.0274 74.315 -6969.7)">
  <circle cx="25" cy="1027.4" r="23.151" fill="none" stroke="#555" stroke-width="2.0801"/>
  <path transform="translate(0 1002.4)" d="m39.426 15.713c-0.02823 9e-4 -0.05633-2.35e-4 -0.08398 0.0098l-31.377 6.1367c-0.40454 0.079-0.53203 0.59502-0.21094 0.85352l6.1992 5.0098v6.877c-0.0012 0.4329 0.52242 0.65025 0.82812 0.34375l3.625-3.627 6.6465 5.3711c0.21864 0.1758 0.5404 0.13029 0.70117-0.09961l14.078-20.111c0.22583-0.3246-0.01091-0.76842-0.40625-0.76172v-2e-3zm0.0098 0.48633-22.697 13.229-2.3027 4.5176 0.35352-6.1582 24.646-11.588z" color="#000000" color-rendering="auto" fill="#555" image-rendering="auto" shape-rendering="auto" solid-color="#000000" style="block-progression:tb;isolation:auto;mix-blend-mode:normal;text-decoration-color:#000000;text-decoration-line:none;text-decoration-style:solid;text-indent:0;text-transform:none;white-space:normal"/>
 </g>
</svg>
